<?xml version="1.0" standalone="no"?><!DOCTYPE svg PUBLIC "-//W3C//DTD SVG 1.1//EN" "http://www.w3.org/Graphics/SVG/1.1/DTD/svg11.dtd"><svg t="1627782616351" class="icon" viewBox="0 0 1024 1024" version="1.1" xmlns="http://www.w3.org/2000/svg" p-id="1180" xmlns:xlink="http://www.w3.org/1999/xlink" width="200" height="200"><defs><style type="text/css"></style></defs><path d="M797.99609375 803.00585938H227.49804687c-59.85351563 0-108.54492188-47.109375-108.54492187-105.02929688V345.09570312c0-19.42382813 15.73242188-35.15625 35.15625-35.15624999s35.15625 15.73242188 35.15625 35.15625v352.96874999c0 18.80859375 17.49023438 34.71679688 38.23242188 34.71679688h570.49804687c20.7421875 0 38.23242188-15.90820313 38.23242188-34.71679687V345.09570312c0-19.42382813 15.73242188-35.15625 35.15625-35.15624999s35.15625 15.73242188 35.15625 35.15625v352.96874999c-0.08789063 57.83203125-48.69140625 104.94140625-108.54492188 104.94140626zM512.26367188 548.2109375c-8.52539063 0-16.96289063-3.07617188-23.64257813-9.140625L130.46679687 212.73242187c-10.72265625-9.75585938-14.32617188-25.13671875-9.14062499-38.67187499 5.2734375-13.53515625 18.28125-22.5 32.78320312-22.5h717.1875c14.50195313 0 27.59765625 8.96484375 32.78320313 22.5 5.2734375 13.53515625 1.58203125 28.91601563-9.140625 38.671875L535.90625 539.0703125c-6.6796875 6.15234375-15.20507813 9.140625-23.64257813 9.140625zM244.90039062 221.9609375l267.36328126 243.6328125 268.06640624-243.6328125H244.90039062z" p-id="1181"></path></svg>